<svg xmlns="http://www.w3.org/2000/svg" version="1.1" viewBox="-5.0 -10.0 110.0 110.0">
  <path
    d="m50 8.332c-23 0-41.668 18.668-41.668 41.668s18.668 41.668 41.668 41.668 41.668-18.668 41.668-41.668-18.668-41.668-41.668-41.668zm26.5 61.793c-5.957-7.25-20.418-9.707-26.5-9.707s-20.543 2.457-26.5 9.707c-4.25-5.582-6.832-12.543-6.832-20.125 0-18.375 14.957-33.332 33.332-33.332s33.332 14.957 33.332 33.332c0 7.582-2.582 14.543-6.832 20.125zm-41.082-30.543c0-8.082 6.5-14.582 14.582-14.582s14.582 6.5 14.582 14.582c0 8.0859-6.5 14.586-14.582 14.586s-14.582-6.5-14.582-14.586z"
    fill="white"
    fill-rule="evenodd" />
</svg>