<svg xmlns="http://www.w3.org/2000/svg" viewBox="0 0 500 500"><g id="freepik--Floor--inject-254"><ellipse id="freepik--floor--inject-254" cx="301.91" cy="365.05" rx="172.71" ry="102.45" style="fill:#f5f5f5"></ellipse></g><g id="freepik--Shadow--inject-254"><path id="freepik--shadow--inject-254" d="M206,421,396.4,311.11a4.87,4.87,0,0,1,4.4,0l53.27,30.8a1.34,1.34,0,0,1,0,2.54L263.63,454.31a4.87,4.87,0,0,1-4.4,0L206,423.52A1.34,1.34,0,0,1,206,421Z" style="fill:#e0e0e0"></path><path id="freepik--shadow--inject-254" d="M206,421,396.4,311.11a4.87,4.87,0,0,1,4.4,0l53.27,30.8a1.34,1.34,0,0,1,0,2.54L263.63,454.31a4.87,4.87,0,0,1-4.4,0L206,423.52A1.34,1.34,0,0,1,206,421Z" style="fill:#e0e0e0"></path></g><g id="freepik--Plants--inject-254"><g id="freepik--plants--inject-254"><path d="M429.48,304.52l-8.15-4.7s-2-17.44-.66-30.94c1.86-19,14.12-41.81,28.74-36.45S442.7,257.12,438,273.22,429.48,304.52,429.48,304.52Z" style="fill:#12ADB2"></path><path d="M429.48,304.52l-8.15-4.7s-2-17.44-.66-30.94c1.86-19,14.12-41.81,28.74-36.45S442.7,257.12,438,273.22,429.48,304.52,429.48,304.52Z" style="opacity:0.15"></path><path d="M425.19,302.54h0a.49.49,0,0,0,.48-.51c-1.43-42.16,19.56-63.37,19.77-63.58a.5.5,0,0,0,0-.7.49.49,0,0,0-.69,0c-.22.21-21.51,21.72-20.07,64.32A.49.49,0,0,0,425.19,302.54Z" style="fill:#fff"></path><path d="M434.59,307.45l-5.79-3.34s-1-12,4.88-26.5c5.11-12.66,17.78-23.16,24.16-20.95s6.21,6.73,3.1,11.47S438.93,284.17,434.59,307.45Z" style="fill:#12ADB2"></path><path d="M431.54,306.18h0a.49.49,0,0,0,.49-.49C431.92,279,457,261,457.2,260.83a.5.5,0,0,0,.12-.69.5.5,0,0,0-.69-.12c-.25.19-25.7,18.5-25.58,45.67A.49.49,0,0,0,431.54,306.18Z" style="fill:#fff"></path></g></g><g id="freepik--Barrier--inject-254"><g id="freepik--Ribbon--inject-254"><path d="M303.75,212.68H298.6v62h0a1.28,1.28,0,0,0,.75,1.05,4,4,0,0,0,3.65,0,1.28,1.28,0,0,0,.75-1.05h0Z" style="fill:#12ADB2"></path><path d="M306.81,209.69a5.64,5.64,0,1,1-5.63-5.63A5.63,5.63,0,0,1,306.81,209.69Z" style="fill:#12ADB2"></path><path d="M306.72,210.7a4.85,4.85,0,0,1-5.91,1.74c-3.14-1.3-4.08-6.19-1.48-8.07a5.64,5.64,0,1,0,7.39,6.33Z" style="opacity:0.15"></path><path d="M231.54,272.63c-11.46,0-18.15-4.55-18.26-4.63a.8.8,0,0,1-.19-1.11.79.79,0,0,1,1.11-.19c.17.12,17.54,11.84,44.55-3.75,27.26-15.75,41.64-46.1,41.78-46.41a.8.8,0,0,1,1.45.67c-.14.31-14.72,31.12-42.44,47.12C248.52,270.69,239,272.63,231.54,272.63Z" style="fill:#455a64"></path><path d="M216.29,263.29h-5.16v62h0a1.29,1.29,0,0,0,.75,1.06,4,4,0,0,0,3.65,0,1.31,1.31,0,0,0,.76-1.06h0Z" style="fill:#12ADB2"></path><path d="M219.34,260.3a5.64,5.64,0,1,1-5.63-5.64A5.64,5.64,0,0,1,219.34,260.3Z" style="fill:#12ADB2"></path><path d="M219.25,261.3a4.83,4.83,0,0,1-5.9,1.75c-3.15-1.3-4.09-6.19-1.49-8.07a5.64,5.64,0,1,0,7.39,6.32Z" style="opacity:0.15"></path><path d="M144,323.14c-11.46,0-18.15-4.54-18.26-4.62a.8.8,0,1,1,.92-1.3c.17.12,17.53,11.84,44.54-3.76,27.27-15.74,41.65-46.09,41.79-46.4a.8.8,0,1,1,1.45.67c-.15.31-14.73,31.11-42.44,47.12C161,321.21,151.5,323.14,144,323.14Z" style="fill:#455a64"></path><path d="M128.82,313.65h-5.16v62h0a1.29,1.29,0,0,0,.76,1,4,4,0,0,0,3.65,0,1.28,1.28,0,0,0,.75-1h0Z" style="fill:#12ADB2"></path><path d="M131.88,310.66a5.64,5.64,0,1,1-5.64-5.64A5.64,5.64,0,0,1,131.88,310.66Z" style="fill:#12ADB2"></path><path d="M131.78,311.66a4.84,4.84,0,0,1-5.9,1.75c-3.15-1.31-4.09-6.2-1.48-8.07a5.63,5.63,0,1,0,7.38,6.32Z" style="opacity:0.15"></path><path d="M56.53,373.62c-11.46,0-18.15-4.54-18.26-4.62a.79.79,0,0,1-.19-1.11.8.8,0,0,1,1.11-.2c.17.12,17.53,11.85,44.54-3.75,27.27-15.74,41.65-46.1,41.79-46.4a.8.8,0,1,1,1.45.67c-.15.31-14.73,31.11-42.44,47.11C73.5,371.69,64,373.62,56.53,373.62Z" style="fill:#455a64"></path><path d="M41.35,364.13H36.2v62h0a1.28,1.28,0,0,0,.75,1.05,4,4,0,0,0,3.65,0,1.28,1.28,0,0,0,.75-1.05h0Z" style="fill:#12ADB2"></path><path d="M44.41,361.14a5.64,5.64,0,1,1-5.63-5.64A5.63,5.63,0,0,1,44.41,361.14Z" style="fill:#12ADB2"></path><path d="M44.32,362.14a4.84,4.84,0,0,1-5.91,1.75c-3.14-1.31-4.08-6.2-1.48-8.07a5.63,5.63,0,1,0,7.39,6.32Z" style="opacity:0.15"></path></g></g><g id="freepik--Character--inject-254"><g id="freepik--character--inject-254"><g id="freepik--Legs--inject-254"><path d="M282.68,370.73c.88,1.36.45,4.33.55,5.58s0,2.49.12,3.72a5.74,5.74,0,0,1-.59,3.81,6.47,6.47,0,0,1-4.89,2.75,14.54,14.54,0,0,1-5.72-.83,51.65,51.65,0,0,0-5.57-1.67c-4.77-.92-9.55.32-14.25-1.31a33.92,33.92,0,0,1-3.23-1.36,22.42,22.42,0,0,1-2.79-1.46c-2.23-1.45-5.34-4.47-4.93-7.33a4.33,4.33,0,0,1,5.05-4c3.87.31,7.68,1.31,11.56,1.36a51.62,51.62,0,0,0,7.36-.35c2.7-.39,5.12-.95,5.47-2.42.55-2.33,5.65.26,7.69,1.35.65.34,1.26.78,1.91,1.12a11.54,11.54,0,0,0,1.54.44A1.45,1.45,0,0,1,282.68,370.73Z" style="fill:#263238"></path><path d="M285.78,363.72l-13.3-3.56-1.66,7.06c-.35,1.47-2.77,2-5.47,2.42A51.62,51.62,0,0,1,258,370c-1.05,0-2.09-.1-3.13-.21h0c-3.44-.47-7.21,2.35-2.3,4.89,4.4,2.28,10.74,2.19,15.65,2.63s13.13-1.7,14.49-5.31h0Z" style="fill:#ffa8a7"></path><path d="M310.76,353.59c.88,1.35.45,4.32.55,5.58s0,2.49.12,3.71a5.73,5.73,0,0,1-.6,3.81,6.44,6.44,0,0,1-4.89,2.76,14.5,14.5,0,0,1-5.71-.84,50.06,50.06,0,0,0-5.57-1.66c-4.77-.93-9.55.31-14.26-1.31a34.94,34.94,0,0,1-3.22-1.37,21.15,21.15,0,0,1-2.79-1.46c-2.24-1.44-5.34-4.46-4.93-7.33a4.31,4.31,0,0,1,5-4c3.88.3,7.69,1.31,11.57,1.35a48.85,48.85,0,0,0,7.36-.35c2.7-.38,5.12-.94,5.46-2.41.56-2.34,5.65.26,7.7,1.34.65.35,1.26.78,1.91,1.12A9.9,9.9,0,0,0,310,353,1.52,1.52,0,0,1,310.76,353.59Z" style="fill:#263238"></path><path d="M313,345.56,300.56,343l-1.67,7.06c-.34,1.47-2.76,2-5.46,2.41a48.85,48.85,0,0,1-7.36.35,30.1,30.1,0,0,1-3.14-.21h0c-3.44-.48-7.21,2.34-2.3,4.89,4.4,2.28,10.74,2.18,15.65,2.62s13.13-1.69,14.48-5.31h0Z" style="fill:#ffa8a7"></path><path d="M306.26,291.05c-1.8,10.62-7.28,54.51-7.28,54.51s3.72,6.93,14.06,3l12.34-49Z" style="fill:#12ADB2"></path><g style="opacity:0.1"><path d="M306.26,291.05c-1.8,10.62-7.28,54.51-7.28,54.51s3.72,6.93,14.06,3l12.34-49Z"></path></g><path d="M286.66,301.2c-1.69,4.77-15.42,61.88-15.42,61.88s3.73,7.52,14.07,3.55l20.29-49.16Z" style="fill:#12ADB2"></path><path d="M304.82,319.35s-7.89-2.94-10.33-5.91c0,0,2.53,6.7,9.19,8.66Z" style="opacity:0.15"></path></g><path d="M265.55,396H257.3v49h0a2,2,0,0,0,1.21,1.68,6.46,6.46,0,0,0,5.84,0,2,2,0,0,0,1.2-1.68h0Z" style="fill:#12ADB2"></path><path d="M258.51,394.34c-1.61.93-1.61,2.44,0,3.37a6.46,6.46,0,0,0,5.84,0c1.61-.93,1.61-2.44,0-3.37A6.46,6.46,0,0,0,258.51,394.34Z" style="fill:#455a64"></path><path d="M438.86,295.85h-8.25v49h0a2.06,2.06,0,0,0,1.21,1.69,6.44,6.44,0,0,0,5.83,0,2.06,2.06,0,0,0,1.21-1.69h0Z" style="fill:#12ADB2"></path><path d="M431.82,294.17c-1.62.93-1.62,2.44,0,3.37a6.44,6.44,0,0,0,5.83,0c1.61-.93,1.61-2.44,0-3.37A6.44,6.44,0,0,0,431.82,294.17Z" style="fill:#455a64"></path><path d="M224.29,372.2H216v49h0a2,2,0,0,0,1.2,1.69,6.46,6.46,0,0,0,5.84,0,2.06,2.06,0,0,0,1.21-1.69h0Z" style="fill:#12ADB2"></path><path d="M217.24,370.52c-1.61.93-1.61,2.44,0,3.37a6.46,6.46,0,0,0,5.84,0c1.61-.93,1.61-2.44,0-3.37A6.46,6.46,0,0,0,217.24,370.52Z" style="fill:#455a64"></path><path d="M397.6,272h-8.26v49h0a2,2,0,0,0,1.21,1.68,6.46,6.46,0,0,0,5.84,0,2.05,2.05,0,0,0,1.21-1.68h0Z" style="fill:#12ADB2"></path><path d="M390.55,270.34c-1.61.93-1.61,2.44,0,3.37a6.46,6.46,0,0,0,5.84,0c1.61-.93,1.61-2.44,0-3.37A6.46,6.46,0,0,0,390.55,270.34Z" style="fill:#455a64"></path><path d="M211.92,379.19v-4.45a4.88,4.88,0,0,1,2.2-3.81L391.28,268.66a4.87,4.87,0,0,1,4.4,0l45.11,26a4.88,4.88,0,0,1,2.2,3.81V303a4.88,4.88,0,0,1-2.2,3.81L263.63,409.05a4.87,4.87,0,0,1-4.4,0L214.12,383A4.86,4.86,0,0,1,211.92,379.19Z" style="fill:#37474f"></path><path d="M261.43,400v9.53a4.46,4.46,0,0,1-2.21-.53l-45.1-26a4.84,4.84,0,0,1-2.2-3.81v-4.45a4.89,4.89,0,0,1,1.81-3.53c-.81.69-.67,1.65.39,2.26l45.1,26A4.54,4.54,0,0,0,261.43,400Z" style="fill:#263238"></path><path d="M214.12,370.93,391.28,268.66a4.87,4.87,0,0,1,4.4,0l45.11,26a1.34,1.34,0,0,1,0,2.54L263.63,399.52a4.87,4.87,0,0,1-4.4,0l-45.11-26A1.34,1.34,0,0,1,214.12,370.93Z" style="fill:#455a64"></path><g id="freepik--character--inject-254"><path d="M372.41,229.15c3.78-.39,5.77-.19,8.49,1.5s3.85,4.95,5,11.49,2.72,33.93,1.61,35.68c-5.06,7.92-20.38-2.24-20.38-2.24Z" style="fill:#ffa8a7"></path><g id="freepik--character--inject-254"><path d="M380.9,301.4s-37.84-11.94-44.77-13.84-20.2-5.08-24.08-3.34-5.85,3.75-6.2,9.35c-.08,1.05,0,6.17,0,6.17s19.24,6,35,6S380.9,301.4,380.9,301.4Z" style="fill:#12ADB2"></path><g style="opacity:0.1"><path d="M380.9,301.4c2.7.85-37.66-11.88-44.77-13.84-6.92-1.9-20.2-5.08-24.08-3.34s-5.85,3.75-6.2,9.35c-.08,1.05,0,6.17,0,6.17s19.24,6,35,6S380.9,301.4,380.9,301.4Z"></path></g><path d="M383.45,294.71c1.09,9.85-1.08,19.63-3.64,22.69-4,4.77-16.08,13.18-36.45,10.14-10.67-1.58-41.94-10.12-41.94-10.12s-15.21-5.62-15.28-9.62c0-1-.1-2,0-3.06.32-5.32,2.47-11.05,13.6-10.76,6.83.19,21.2,2.13,32.49,3.8,2.61.38,5.65-6.54,7.79-6.21,5.1.79,7.93,8.64,7.93,8.64Z" style="fill:#12ADB2"></path></g><path d="M309.11,261.73l36.68,19.7.6.95v.76a1.11,1.11,0,0,1-.6.95l-38.6,22.29a2.15,2.15,0,0,1-2,0l-36-20.82v-.76Z" style="fill:#263238"></path><path d="M306.18,305.86a2.07,2.07,0,0,0,1-.25l38.6-22.28a1.05,1.05,0,0,0,0-1.9L310.4,261,269.16,284.8l36,20.81A2.06,2.06,0,0,0,306.18,305.86Z" style="fill:#455a64"></path><path d="M310.4,258.75,345.47,279l.29.4v3h0a.5.5,0,0,1-.29.4l-38.6,22.28a1.5,1.5,0,0,1-1.37,0L270.43,284.8v-3Z" style="fill:#f5f5f5"></path><path d="M270.43,281.83l.34.2,4.51,2.6.84.49,29.38,17a1.5,1.5,0,0,0,1.37,0l38.6-22.28a.42.42,0,0,0,0-.8l-.36-.21L310.4,258.75l-39.63,22.88-.08.05Z" style="fill:#ebebeb"></path><path d="M306.19,302.26v3a1.4,1.4,0,0,0,.68-.17l38.6-22.28a.49.49,0,0,0,.29-.4v-3a.51.51,0,0,1-.29.4l-38.6,22.28A1.4,1.4,0,0,1,306.19,302.26Z" style="fill:#e0e0e0"></path><path d="M270.43,281.44l5,2.87.78.45L305.5,301.7a1.57,1.57,0,0,0,1.37,0l34.57-20,.87-.5a8.77,8.77,0,0,0,2.8-2.44l.06-.1a.64.64,0,0,0,.09-.21.62.62,0,0,0-.49-.7,12.8,12.8,0,0,1-2.6-1.08l0,0L310.4,258.35Z" style="fill:#fafafa"></path><path d="M275.59,281.09a.39.39,0,0,1,0,.74,1.4,1.4,0,0,1-1.29,0,.39.39,0,0,1,0-.74A1.4,1.4,0,0,1,275.59,281.09Z" style="opacity:0.1"></path><path d="M270.57,280.68a4.6,4.6,0,0,0,.05.64l.45-.26c0-.12,0-.25,0-.38a1.77,1.77,0,0,1,.65-1.59.93.93,0,0,1,.46-.12,1.62,1.62,0,0,1,.79.24,4.84,4.84,0,0,1,1.94,2.77,1.24,1.24,0,0,0,.47-.06,5.39,5.39,0,0,0-2.17-3.12,1.7,1.7,0,0,0-1.73-.12A2.22,2.22,0,0,0,270.57,280.68Z" style="fill:#12ADB2"></path><path d="M270.66,281.57l0,.11.08-.05Z" style="fill:#263238"></path><path d="M279.45,278.85a.4.4,0,0,1,0,.75,1.44,1.44,0,0,1-1.28,0,.4.4,0,0,1,0-.75A1.44,1.44,0,0,1,279.45,278.85Z" style="opacity:0.1"></path><path d="M274.44,278.45a4.72,4.72,0,0,0,.05.64l.45-.26a2.42,2.42,0,0,1,0-.38,1.77,1.77,0,0,1,.65-1.59.9.9,0,0,1,.46-.12,1.62,1.62,0,0,1,.79.24,4.84,4.84,0,0,1,1.94,2.77,1.24,1.24,0,0,0,.47-.06,5.43,5.43,0,0,0-2.17-3.12,1.68,1.68,0,0,0-1.73-.12A2.18,2.18,0,0,0,274.44,278.45Z" style="fill:#12ADB2"></path><path d="M283.32,276.62a.39.39,0,0,1,0,.74,1.38,1.38,0,0,1-1.28,0,.39.39,0,0,1,0-.74A1.38,1.38,0,0,1,283.32,276.62Z" style="opacity:0.1"></path><path d="M278.31,276.22a4.72,4.72,0,0,0,.05.64l.45-.26a2.48,2.48,0,0,1,0-.38,1.73,1.73,0,0,1,.65-1.59.91.91,0,0,1,.46-.13,1.65,1.65,0,0,1,.79.25,4.81,4.81,0,0,1,1.93,2.76,1.51,1.51,0,0,0,.48-.05,5.46,5.46,0,0,0-2.17-3.13,1.7,1.7,0,0,0-1.73-.12A2.21,2.21,0,0,0,278.31,276.22Z" style="fill:#12ADB2"></path><path d="M287.19,274.39a.39.39,0,0,1,0,.74,1.38,1.38,0,0,1-1.28,0,.39.39,0,0,1,0-.74A1.38,1.38,0,0,1,287.19,274.39Z" style="opacity:0.1"></path><path d="M282.18,274a3.45,3.45,0,0,0,.05.64l.45-.26a2.34,2.34,0,0,1,0-.38,1.75,1.75,0,0,1,.66-1.59.88.88,0,0,1,.46-.12,1.62,1.62,0,0,1,.79.24,4.83,4.83,0,0,1,1.93,2.77,1.29,1.29,0,0,0,.48-.06,5.4,5.4,0,0,0-2.18-3.12,1.68,1.68,0,0,0-1.72-.12A2.2,2.2,0,0,0,282.18,274Z" style="fill:#12ADB2"></path><path d="M291.06,272.15a.4.4,0,0,1,0,.75,1.44,1.44,0,0,1-1.28,0,.4.4,0,0,1,0-.75A1.44,1.44,0,0,1,291.06,272.15Z" style="opacity:0.1"></path><path d="M286.05,271.75a4.68,4.68,0,0,0,0,.64l.45-.26c0-.13,0-.25,0-.38a1.77,1.77,0,0,1,.65-1.59.94.94,0,0,1,.47-.12,1.56,1.56,0,0,1,.78.24,4.84,4.84,0,0,1,1.94,2.77,1.22,1.22,0,0,0,.47-.06,5.34,5.34,0,0,0-2.17-3.12,1.66,1.66,0,0,0-1.72-.12A2.18,2.18,0,0,0,286.05,271.75Z" style="fill:#12ADB2"></path><path d="M294.93,269.92a.39.39,0,0,1,0,.74,1.38,1.38,0,0,1-1.28,0,.39.39,0,0,1,0-.74A1.38,1.38,0,0,1,294.93,269.92Z" style="opacity:0.1"></path><path d="M289.92,269.52a4.78,4.78,0,0,0,0,.64l.45-.26c0-.13,0-.26,0-.38a1.78,1.78,0,0,1,.65-1.6,1.06,1.06,0,0,1,.47-.12,1.61,1.61,0,0,1,.78.25,4.82,4.82,0,0,1,1.94,2.76,1.45,1.45,0,0,0,.47-.05,5.37,5.37,0,0,0-2.17-3.13,1.69,1.69,0,0,0-1.72-.12A2.21,2.21,0,0,0,289.92,269.52Z" style="fill:#12ADB2"></path><path d="M298.8,267.69c.35.2.35.53,0,.74a1.4,1.4,0,0,1-1.29,0c-.35-.21-.35-.54,0-.74A1.4,1.4,0,0,1,298.8,267.69Z" style="opacity:0.1"></path><path d="M293.78,267.28a4.6,4.6,0,0,0,.05.64l.45-.26c0-.12,0-.25,0-.38a1.77,1.77,0,0,1,.65-1.59.93.93,0,0,1,.46-.12,1.59,1.59,0,0,1,.79.24,4.84,4.84,0,0,1,1.94,2.77,1.22,1.22,0,0,0,.47-.06,5.34,5.34,0,0,0-2.17-3.12,1.7,1.7,0,0,0-1.73-.12A2.22,2.22,0,0,0,293.78,267.28Z" style="fill:#12ADB2"></path><path d="M302.67,265.45a.4.4,0,0,1,0,.75,1.46,1.46,0,0,1-1.29,0,.4.4,0,0,1,0-.75A1.46,1.46,0,0,1,302.67,265.45Z" style="opacity:0.1"></path><path d="M297.65,265.05a4.72,4.72,0,0,0,.05.64l.45-.26c0-.13,0-.25,0-.38a1.77,1.77,0,0,1,.65-1.59.93.93,0,0,1,.46-.12,1.59,1.59,0,0,1,.79.24,4.84,4.84,0,0,1,1.94,2.77,1.24,1.24,0,0,0,.47-.06,5.34,5.34,0,0,0-2.17-3.12,1.68,1.68,0,0,0-1.73-.12A2.2,2.2,0,0,0,297.65,265.05Z" style="fill:#12ADB2"></path><path d="M306.53,263.22a.39.39,0,0,1,0,.74,1.4,1.4,0,0,1-1.29,0,.39.39,0,0,1,0-.74A1.38,1.38,0,0,1,306.53,263.22Z" style="opacity:0.1"></path><path d="M301.52,262.81a4.87,4.87,0,0,0,.05.65l.45-.26a2.55,2.55,0,0,1,0-.39,1.77,1.77,0,0,1,.65-1.59.9.9,0,0,1,.46-.12,1.74,1.74,0,0,1,.79.24,4.84,4.84,0,0,1,1.94,2.77,1.48,1.48,0,0,0,.47-.05,5.38,5.38,0,0,0-2.17-3.13,1.7,1.7,0,0,0-1.73-.12A2.22,2.22,0,0,0,301.52,262.81Z" style="fill:#12ADB2"></path><path d="M310.4,261a.4.4,0,0,1,0,.75,1.44,1.44,0,0,1-1.28,0,.4.4,0,0,1,0-.75A1.44,1.44,0,0,1,310.4,261Z" style="opacity:0.1"></path><path d="M305.39,260.58a4.6,4.6,0,0,0,.05.64l.45-.26a2.36,2.36,0,0,1,0-.38,1.77,1.77,0,0,1,.65-1.59.9.9,0,0,1,.46-.12,1.62,1.62,0,0,1,.79.24,4.79,4.79,0,0,1,1.93,2.77,1.27,1.27,0,0,0,.48-.06A5.43,5.43,0,0,0,308,258.7a1.7,1.7,0,0,0-1.73-.12A2.19,2.19,0,0,0,305.39,260.58Z" style="fill:#12ADB2"></path><g style="opacity:0.30000000000000004"><path d="M270.57,280.68a4.6,4.6,0,0,0,.05.64l.45-.26c0-.12,0-.25,0-.38a1.77,1.77,0,0,1,.65-1.59.93.93,0,0,1,.46-.12,1.62,1.62,0,0,1,.79.24,4.84,4.84,0,0,1,1.94,2.77,1.24,1.24,0,0,0,.47-.06,5.39,5.39,0,0,0-2.17-3.12,1.7,1.7,0,0,0-1.73-.12A2.22,2.22,0,0,0,270.57,280.68Z"></path><path d="M274.44,278.45a4.72,4.72,0,0,0,.05.64l.45-.26a2.42,2.42,0,0,1,0-.38,1.77,1.77,0,0,1,.65-1.59.9.9,0,0,1,.46-.12,1.62,1.62,0,0,1,.79.24,4.84,4.84,0,0,1,1.94,2.77,1.24,1.24,0,0,0,.47-.06,5.43,5.43,0,0,0-2.17-3.12,1.68,1.68,0,0,0-1.73-.12A2.18,2.18,0,0,0,274.44,278.45Z"></path><path d="M278.31,276.22a4.72,4.72,0,0,0,.05.64l.45-.26a2.48,2.48,0,0,1,0-.38,1.73,1.73,0,0,1,.65-1.59.91.91,0,0,1,.46-.13,1.65,1.65,0,0,1,.79.25,4.81,4.81,0,0,1,1.93,2.76,1.51,1.51,0,0,0,.48-.05,5.46,5.46,0,0,0-2.17-3.13,1.7,1.7,0,0,0-1.73-.12A2.21,2.21,0,0,0,278.31,276.22Z"></path><path d="M282.18,274a3.45,3.45,0,0,0,.05.64l.45-.26a2.34,2.34,0,0,1,0-.38,1.75,1.75,0,0,1,.66-1.59.88.88,0,0,1,.46-.12,1.62,1.62,0,0,1,.79.24,4.83,4.83,0,0,1,1.93,2.77,1.29,1.29,0,0,0,.48-.06,5.4,5.4,0,0,0-2.18-3.12,1.68,1.68,0,0,0-1.72-.12A2.2,2.2,0,0,0,282.18,274Z"></path><path d="M286.05,271.75a4.68,4.68,0,0,0,0,.64l.45-.26c0-.13,0-.25,0-.38a1.77,1.77,0,0,1,.65-1.59.94.94,0,0,1,.47-.12,1.56,1.56,0,0,1,.78.24,4.84,4.84,0,0,1,1.94,2.77,1.22,1.22,0,0,0,.47-.06,5.34,5.34,0,0,0-2.17-3.12,1.66,1.66,0,0,0-1.72-.12A2.18,2.18,0,0,0,286.05,271.75Z"></path><path d="M289.92,269.52a4.78,4.78,0,0,0,0,.64l.45-.26c0-.13,0-.26,0-.38a1.78,1.78,0,0,1,.65-1.6,1.06,1.06,0,0,1,.47-.12,1.61,1.61,0,0,1,.78.25,4.82,4.82,0,0,1,1.94,2.76,1.45,1.45,0,0,0,.47-.05,5.37,5.37,0,0,0-2.17-3.13,1.69,1.69,0,0,0-1.72-.12A2.21,2.21,0,0,0,289.92,269.52Z"></path><path d="M293.78,267.28a4.6,4.6,0,0,0,.05.64l.45-.26c0-.12,0-.25,0-.38a1.77,1.77,0,0,1,.65-1.59.93.93,0,0,1,.46-.12,1.59,1.59,0,0,1,.79.24,4.84,4.84,0,0,1,1.94,2.77,1.22,1.22,0,0,0,.47-.06,5.34,5.34,0,0,0-2.17-3.12,1.7,1.7,0,0,0-1.73-.12A2.22,2.22,0,0,0,293.78,267.28Z"></path><path d="M297.65,265.05a4.72,4.72,0,0,0,.05.64l.45-.26c0-.13,0-.25,0-.38a1.77,1.77,0,0,1,.65-1.59.93.93,0,0,1,.46-.12,1.59,1.59,0,0,1,.79.24,4.84,4.84,0,0,1,1.94,2.77,1.24,1.24,0,0,0,.47-.06,5.34,5.34,0,0,0-2.17-3.12,1.68,1.68,0,0,0-1.73-.12A2.2,2.2,0,0,0,297.65,265.05Z"></path><path d="M301.52,262.81a4.87,4.87,0,0,0,.05.65l.45-.26a2.55,2.55,0,0,1,0-.39,1.77,1.77,0,0,1,.65-1.59.9.9,0,0,1,.46-.12,1.74,1.74,0,0,1,.79.24,4.84,4.84,0,0,1,1.94,2.77,1.48,1.48,0,0,0,.47-.05,5.38,5.38,0,0,0-2.17-3.13,1.7,1.7,0,0,0-1.73-.12A2.22,2.22,0,0,0,301.52,262.81Z"></path><path d="M305.39,260.58a4.6,4.6,0,0,0,.05.64l.45-.26a2.36,2.36,0,0,1,0-.38,1.77,1.77,0,0,1,.65-1.59.9.9,0,0,1,.46-.12,1.62,1.62,0,0,1,.79.24,4.79,4.79,0,0,1,1.93,2.77,1.27,1.27,0,0,0,.48-.06A5.43,5.43,0,0,0,308,258.7a1.7,1.7,0,0,0-1.73-.12A2.19,2.19,0,0,0,305.39,260.58Z"></path></g><path d="M374.69,265.67l-40.1-4.79c-3.78-2.21-6.41-3.6-10.76-4a10.37,10.37,0,0,0-4.63,1.69c-4.13,3.08-9.32,13.1-2.11,14.32,4.29.73,9.4-1.32,12.88-1.47a51.6,51.6,0,0,1,8.42,1c10.3,2.09,24.39,5.45,35.59,7.87,4.23.91,8.31,1.73,10.63-2.93C388.4,269.72,374.69,265.67,374.69,265.67Z" style="fill:#ffa8a7"></path><path d="M323.11,264.22l-4.83,8.8a3.34,3.34,0,0,1,1,0l3.06-4.46c1-1.44,2.15-3.31,2.15-3.31s3.36-1.75,4.38-3.47S323.11,264.22,323.11,264.22Z" style="fill:#f28f8f"></path><g id="freepik--Pencil--inject-254"><path d="M311.85,274.49l-1.29,6.89a.21.21,0,0,0,.35.2l5.25-4.71Z" style="fill:#ffa8a7"></path><path d="M310.88,281.6l0,0,5.25-4.71-2.28-1.26-.43.75-2.69,5Z" style="fill:#f28f8f"></path><path d="M310.91,281.58a.21.21,0,0,1-.35-.2l.25-1.35h0a1.16,1.16,0,0,0,1.1.55H312Z" style="fill:#263238"></path><path d="M330.66,251.09l-.32.56-.39.69-13.79,24.53a3.14,3.14,0,0,1-2.29-.18,3.23,3.23,0,0,1-2-2.2L325.64,250l.74-1.31C326,249.54,330.21,252,330.66,251.09Z" style="fill:#455a64"></path><path d="M330.65,251.09l-.31.56-.39.69-13.79,24.52a3.35,3.35,0,0,1-2.76-.41l14.44-26c-.08-.05-.08-.09,0-.12C329,251,330.41,251.57,330.65,251.09Z" style="fill:#37474f"></path><path d="M329.45,253.24l-.71,1.27c-.2.37-1.11.16-2.05-.26-1.26-.56-2.48-1.68-2.23-2.18l.53-.93.19-.33c-.26.5,1,1.62,2.22,2.18.91.41,1.79.61,2,.29h0S329.44,253.26,329.45,253.24Z" style="fill:#ebebeb"></path><path d="M329.27,253.56c-.45.86-4.72-1.57-4.27-2.44l.71-1.26c-.45.87,3.82,3.3,4.27,2.43Z" style="fill:#37474f"></path><path d="M330.66,251.09l-.71,1.25c-.43.85-4.57-1.46-4.31-2.36a.14.14,0,0,1,0-.06l.72-1.25C326,249.54,330.21,252,330.66,251.09Z" style="fill:#ebebeb"></path><path d="M310.68,281.61a.21.21,0,0,0,.2,0A.21.21,0,0,1,310.68,281.61Z" style="fill:#ffa8a7"></path><path d="M332.14,248.5l-1.48,2.59c-.19.37-1.1.17-2-.25-1.26-.56-2.49-1.67-2.24-2.17h0l1.49-2.6c.6-1.05,2.89-.11,3.92,1.06A1.25,1.25,0,0,1,332.14,248.5Z" style="fill:#f28f8f"></path><path d="M330.51,248.83a3.81,3.81,0,0,1-2.63-2.13.88.88,0,0,1,.1-.79c.73-.8,2.83.11,3.81,1.21a1.27,1.27,0,0,1,.36,1.35C331.92,248.87,331.31,249,330.51,248.83Z" style="opacity:0.1"></path></g><path d="M321.69,257.34a13.39,13.39,0,0,0-2.33,0,8.28,8.28,0,0,0-3.33.9,2.63,2.63,0,0,0-1,.84,4.14,4.14,0,0,0-.41,1.29c-.52,2.31-2.2,4.12-2.73,6.41-.46,2,0,7.2,1.71,7.86,1.05.41,1.94-2,2-3.58.66.95,2-.05,2.26-2.65.19-2.15.3-4.9.3-4.9Z" style="fill:#ffa8a7"></path><path d="M317.15,261.81a1.38,1.38,0,0,0,0,1.4,3.65,3.65,0,0,0,1,1.24l0-.95Z" style="fill:#f28f8f"></path><path d="M334.59,260.88c-3.09-1.76-4.54-4-7.66-3.39s-4.08,1.76-7.5,2.74c-4.87,1.41-1.19,4.64,3.16,4.06s6.24-2.47,6.24-2.47S334.52,265.89,334.59,260.88Z" style="fill:#ffa8a7"></path><polygon points="350.62 226.92 353.44 240.36 367.81 239.33 364.93 224.9 350.62 226.92" style="fill:#ffa8a7"></polygon><path d="M382.27,240.3c-1.37-7.24-5.56-12.1-11.47-11l-4.81.9.44,2.2c1.27,3.56-11,6.33-14,3.15l-.39-1.88c-2.28.65-9.87,2.41-11.77,3.08-5.4,1.94-8.81,8.12-8.92,23.15s.27,37.79.27,37.79,3,.55,5.46-3c1.8,22.15,19.57,27.18,32.39,22.87a20.79,20.79,0,0,0,11.66-9c3-5,3-10.5,2.14-16.24-.52-3.51-2.37-11.88-4.36-22.26C383.92,254,383.62,247.44,382.27,240.3Z" style="fill:#12ADB2"></path><g style="opacity:0.7000000000000001"><path d="M382.27,240.3c-1.37-7.24-5.56-12.1-11.47-11l-4.81.9.44,2.2c1.27,3.56-11,6.33-14,3.15l-.39-1.88c-2.28.65-9.87,2.41-11.77,3.08-5.4,1.94-8.81,8.12-8.92,23.15s.27,37.79.27,37.79,3,.55,5.46-3c1.8,22.15,19.57,27.18,32.39,22.87a20.79,20.79,0,0,0,11.66-9c3-5,3-10.5,2.14-16.24-.52-3.51-2.37-11.88-4.36-22.26C383.92,254,383.62,247.44,382.27,240.3Z" style="fill:#fff"></path></g><g id="freepik--head--inject-254"><path d="M344.87,204.08s-8.34-7.73-3.21-14.06c5.57-6.89,16.95-7.67,28.58-4,5.76,1.84,12,7.2,12.18,18.43.16,8.66-10.62,16.53-22.28,21.07Z" style="fill:#12ADB2"></path><g style="opacity:0.4"><path d="M344.87,204.08s-8.34-7.73-3.21-14.06c5.57-6.89,16.95-7.67,28.58-4,5.76,1.84,12,7.2,12.18,18.43.16,8.66-10.62,16.53-22.28,21.07Z"></path></g><path d="M340.86,206.44s-4.47,6.48-3.92,7.18,3.3,1.5,3.3,1.5Z" style="fill:#f28f8f"></path><path d="M340.33,210.27h-.17a3.59,3.59,0,0,1-2.25-6.24,3.59,3.59,0,0,1,6,2.82h0A3.62,3.62,0,0,1,340.33,210.27Zm0-6.62a3,3,0,0,0-2.23,5.06,3.06,3.06,0,0,0,2.1,1,3,3,0,0,0,3.15-2.88h0a3,3,0,0,0-2.87-3.16Z"></path><path d="M351.39,191.17c-3.35,1.65-9.14,4.7-10.86,16.89-1.76,12.5,1,16.91,2.62,18.59,1.14,1.13,7.08,1.65,10.2.75,3.91-1.13,12.41-5.12,16.49-11.52,4.79-7.52,6-17.64.67-21.72C363.08,188.41,354.22,189.78,351.39,191.17Z" style="fill:#ffa8a7"></path><path d="M382.11,201.15a20.74,20.74,0,0,0-.55-2.36h0c-1.72-6.12-4.22-9.1-8.19-11.34a16.91,16.91,0,0,0-3.17-1.4c-6.56-2.09-12.61-2.72-17.62-1.43h0l-.12,0-.13,0c-1.63.55-9.76,3.63-9,10.86a12.54,12.54,0,0,0,5.91,9.59,17.54,17.54,0,0,0,1.34,5.2s2.12-4.42,5.92-3.06,3.39,6.5.3,9.07a6.27,6.27,0,0,1-3.39,1.52,5.43,5.43,0,0,1-2.62-.35,25.65,25.65,0,0,0,5.33,8.93s2.91,4.3,9.41,1.73a77.68,77.68,0,0,0,8.18-7.44c4.76-5.54,8.5-10.14,8.64-15.51A20.63,20.63,0,0,0,382.11,201.15Z" style="fill:#12ADB2"></path><path d="M382.11,201.15a20.74,20.74,0,0,0-.55-2.36h0c-1.72-6.12-4.22-9.1-8.19-11.34a16.91,16.91,0,0,0-3.17-1.4c-6.56-2.09-12.61-2.72-17.62-1.43h0l-.12,0-.13,0c-1.63.55-9.76,3.63-9,10.86a12.54,12.54,0,0,0,5.91,9.59,17.54,17.54,0,0,0,1.34,5.2s2.12-4.42,5.92-3.06,3.39,6.5.3,9.07a6.27,6.27,0,0,1-3.39,1.52,5.43,5.43,0,0,1-2.62-.35,25.65,25.65,0,0,0,5.33,8.93s2.91,4.3,9.41,1.73a77.68,77.68,0,0,0,8.18-7.44c4.76-5.54,8.5-10.14,8.64-15.51A20.63,20.63,0,0,0,382.11,201.15Z" style="opacity:0.4"></path><path d="M352.11,208.62h0l-15-2.27a.28.28,0,0,1-.24-.33.28.28,0,0,1,.32-.24l15,2.28a.29.29,0,0,1,0,.57Z"></path><path d="M351.83,227.7a18.72,18.72,0,0,1-8-.65h0a12.45,12.45,0,0,0,7.95-1.63Z" style="fill:#f28f8f"></path></g><path d="M309.61,306.26c10.63-3.41,27.88-7.8,29.76-12.44,2.32-5.73,7.74-35.32,7.74-35.32s3.24-20.88-6.84-21.75c-4.35.87-8.06,3-8.95,10.89-.4,3.63-1.14,19.4-3.49,37.34l-26.38,13.26c-1.84-.18-2.33-2.43-3.87-4.65s-2.65-5.07-3.87-4.29-.45,4.43,0,6.16a4.5,4.5,0,0,1-.66,3.33s-1.16-.44-2.23-.74c-.57-.16-9.62-5.35-9.62-5.35s-.91,5.65,1.89,8.48c3.51,4.07,8.51,5.58,13.08,6.24A31.37,31.37,0,0,0,309.61,306.26Z" style="fill:#ffa8a7"></path></g></g></g><g id="freepik--speech-bubble--inject-254"><g id="freepik--speach-bubble--inject-254"><path d="M362.59,164.72l-3.33-6.27,2.68-7.75V146l-8.21,4.74v4.74l3.53,6.12a.49.49,0,0,0,.24.21h0Z" style="fill:#12ADB2"></path><path d="M362.59,164.72l-3.33-6.27,2.68-7.75V146l-8.21,4.74v4.74l3.53,6.12a.49.49,0,0,0,.24.21h0Z" style="opacity:0.2"></path><path d="M382.21,108.26a5.43,5.43,0,0,0-2.47-4.26l-2-1.16a5.49,5.49,0,0,0-4.93,0l-30.75,17.79a5.42,5.42,0,0,0-2.46,4.26v33.83a5.46,5.46,0,0,0,2.46,4.27l2,1.16a5.46,5.46,0,0,0,4.92,0l9.89-5.72,3.53,6.11a.53.53,0,0,0,.95-.09l3.72-10.76,12.66-7.33a5.43,5.43,0,0,0,2.47-4.26Z" style="fill:#12ADB2"></path><path d="M339.6,158.72a5.46,5.46,0,0,0,2.46,4.27l2,1.16a5.47,5.47,0,0,0,4.5.19c-1.16.44-2-.21-2-1.62V128.89a5.15,5.15,0,0,1,.72-2.43l-6.93-4a5.12,5.12,0,0,0-.72,2.43Z" style="opacity:0.2"></path><path d="M382.13,107.56c-.29-1-1.25-1.38-2.38-.72L349,124.63a4.81,4.81,0,0,0-1.73,1.84l-6.93-4a5,5,0,0,1,1.74-1.84l30.74-17.79a5.49,5.49,0,0,1,4.93,0l2,1.16A5.48,5.48,0,0,1,382.13,107.56Z" style="fill:#fff;opacity:0.5"></path><path d="M354,137.28a15.7,15.7,0,0,1,1.29-6.09h0l0,0a10.65,10.65,0,0,1,3.89-5c2.65-1.56,4.87,1.62,5.21,5.36.32-4.13,2.49-9.89,5.15-11.45a2.9,2.9,0,0,1,3.91.39l0,0h0a7,7,0,0,1,1.34,4.54c0,6.33-3.78,12.08-7,18.12L364.41,149l-3.31-1.87C357.87,144.87,354,143.62,354,137.28Z" style="fill:#fafafa"></path></g></g><g id="freepik--Painting--inject-254"><g id="freepik--data-sheet--inject-254"><polygon points="55.09 305.49 83.98 288.81 83.98 307.88 55.09 324.55 55.09 305.49" style="fill:#ebebeb"></polygon><path d="M58,310.5a.38.38,0,0,1-.19-.71l23.13-13.34a.37.37,0,0,1,.52.14.39.39,0,0,1-.14.52L58.16,310.45A.41.41,0,0,1,58,310.5Z" style="fill:#455a64"></path><path d="M58,313.74a.38.38,0,0,1-.33-.2.39.39,0,0,1,.14-.52l23.13-13.34a.38.38,0,1,1,.38.66L58.16,313.68A.33.33,0,0,1,58,313.74Z" style="fill:#455a64"></path><path d="M58,317a.38.38,0,0,1-.19-.71l23.13-13.34a.38.38,0,0,1,.52.14.39.39,0,0,1-.14.52L58.16,316.92A.41.41,0,0,1,58,317Z" style="fill:#455a64"></path></g><g id="freepik--painting--inject-254"><polygon points="59.22 150.63 244.91 43.42 244.91 186.37 59.22 293.58 59.22 150.63" style="fill:#455a64"></polygon><polygon points="63.35 286.43 240.79 183.99 240.79 50.57 63.34 153.01 63.35 286.43" style="fill:#12ADB2"></polygon><polygon points="59.22 293.58 55.09 291.2 55.09 148.25 59.22 150.63 59.22 293.58" style="fill:#263238"></polygon><polygon points="244.91 43.42 240.78 41.04 55.09 148.25 59.22 150.63 244.91 43.42" style="fill:#37474f"></polygon><polygon points="240.79 50.57 236.66 52.95 236.66 181.6 240.79 183.99 240.79 50.57" style="fill:#263238"></polygon><polygon points="236.66 181.6 240.79 183.99 63.35 286.43 63.34 281.67 236.66 181.6" style="fill:#37474f"></polygon><g id="freepik--v--inject-254"><polygon points="63.35 281.67 236.66 181.6 236.66 51.29 63.34 151.35 63.35 281.67" style="fill:#12ADB2"></polygon><polygon points="236.66 51.29 127.32 203.83 236.66 144.27 236.66 51.29" style="opacity:0.15"></polygon><polygon points="236.66 51.29 155.43 164.62 144.55 123.26 236.66 51.29" style="opacity:0.1"></polygon><polygon points="144.55 123.26 63.34 151.35 236.66 51.29 144.55 123.26" style="opacity:0.15"></polygon><polygon points="63.34 151.35 144.55 123.26 155.43 164.62 63.34 151.35" style="opacity:0.2"></polygon><polygon points="63.34 151.35 155.43 164.62 63.35 235.62 63.34 151.35" style="opacity:0.15"></polygon><polygon points="236.66 181.6 185.03 211.41 161.11 184.32 236.66 148.51 236.66 181.6" style="opacity:0.4"></polygon><polygon points="185.03 211.41 93.9 264.03 161.11 184.32 185.03 211.41" style="opacity:0.30000000000000004"></polygon><polygon points="93.9 264.03 161.11 184.32 63.35 241.1 63.35 281.67 93.9 264.03" style="opacity:0.5"></polygon><path d="M95,160.57s-7,1-12.61,9-6,19.95-6,19.95a42.36,42.36,0,0,0-13,21.15V241.1L130,202.59l-.54-31.29s4.92-2.17,5.47-7.37-1.6-5.37-1.6-5.37-.1,7.84-6.84,7.25a22.45,22.45,0,0,0,3-11.83c-.41-6.37-6.84-7.49-13-.31,0,0,1.84-8.13-3.26-10S96.52,151.44,95,160.57Z" style="fill:#12ADB2"></path><path d="M95,160.57s-7,1-12.61,9-6,19.95-6,19.95a42.36,42.36,0,0,0-13,21.15V241.1L130,202.59l-.54-31.29s4.92-2.17,5.47-7.37-1.6-5.37-1.6-5.37-.1,7.84-6.84,7.25a22.45,22.45,0,0,0,3-11.83c-.41-6.37-6.84-7.49-13-.31,0,0,1.84-8.13-3.26-10S96.52,151.44,95,160.57Z" style="opacity:0.4"></path><path d="M97.8,219s-4-11.68-10.92-15.49-.77-15.5-.77-15.5c-7.1-1.93-2.74-15-2.74-15-7.83,8.47-5.29,23.45-5.29,23.45s3,3,1.73,9.36-11.16,15.09-12.35,8.31,4.92-14.38,4.92-14.38c-4.17,3.32-7.07,8.58-9,13.54V241.1l32.89-19Z" style="opacity:0.15"></path><path d="M96.42,163.44s2.12-11.79,13.55-15c6.36-1.8,8,6.67,4.34,11.86,0,0,5.41-8.92,10.31-7.11s2.19,10.47-.86,13.11c1.71-4,1.95-8.9-.12-9.56s-4.74,2.5-4.87,5.35c0,0,3-2.48,3.29.18s-2.68,5.57-2.68,5.57,9.25-1,4.38,9.41S105.21,193,105.21,193s-7.85,11.14-11.38,10.79-6.69-2.22-5.23-7.75,6.32-10.29,6-10.44-7.42,2-7.67-4.36S89.28,166.18,96.42,163.44Z" style="opacity:0.15"></path><path d="M97.8,186.37s4.47,7.57,3.61,9.32-3.79,3.14-8.45,2.89c-3-.15-10.85,5.64-10.58,15.29s14.14,26.28,16.16,28.25,7.88-.8,16-8.31,20-18.21,20-18.21a25.38,25.38,0,0,0,11.84-2.25,104.17,104.17,0,0,0,12.84-7.09c3.52-2.35,5.69-5.48,1.89-5.17s-9.49,1.2-9.49,1.2,7-5.48,9.77-7.2,11.65-1.51,28.47-12.16,41.48-37.52,41.48-37.52A126.83,126.83,0,0,1,218,140c-4.42-2.34-8.76-6.62-16.36-7.25s-14.09-.31-21.05,3.29c0,0,2.53-2.82,1.89-3.71s-2.44.59-7.41,1.58-12.29,3.54-15.09,8.08-17.35,31.1-17.35,31.1-4.43-.79-9.67-1.2-6.78-3-11.57,2.61-6.06,8.61-7.87,10S111,182,111,182Z" style="fill:#12ADB2"></path><path d="M97.8,186.37s4.47,7.57,3.61,9.32-3.79,3.14-8.45,2.89c-3-.15-10.85,5.64-10.58,15.29s14.14,26.28,16.16,28.25,7.88-.8,16-8.31,20-18.21,20-18.21a25.38,25.38,0,0,0,11.84-2.25,104.17,104.17,0,0,0,12.84-7.09c3.52-2.35,5.69-5.48,1.89-5.17s-9.49,1.2-9.49,1.2,7-5.48,9.77-7.2,11.65-1.51,28.47-12.16,41.48-37.52,41.48-37.52A126.83,126.83,0,0,1,218,140c-4.42-2.34-8.76-6.62-16.36-7.25s-14.09-.31-21.05,3.29c0,0,2.53-2.82,1.89-3.71s-2.44.59-7.41,1.58-12.29,3.54-15.09,8.08-17.35,31.1-17.35,31.1-4.43-.79-9.67-1.2-6.78-3-11.57,2.61-6.06,8.61-7.87,10S111,182,111,182Z" style="fill:#fff;opacity:0.6000000000000001"></path><path d="M99.81,190.13l-2-3.76L111,182l.28,1S104.12,190,99.81,190.13Z" style="opacity:0.1"></path><path d="M96.42,163.44c9-8,11.37-9.75,15.38-6.5s6.78,15.05,5.4,18-10.45,11.73-13.78,12.33a8.36,8.36,0,0,1-5.62-.86s-1.61,3-4.59,3.58-4.41-3.73-1.38-7.82c1.91-2.59,3.56-2.06,3.56-2.06S101.93,166,96.42,163.44Z" style="fill:#12ADB2"></path><path d="M96.42,163.44c9-8,11.37-9.75,15.38-6.5s6.78,15.05,5.4,18-10.45,11.73-13.78,12.33a8.36,8.36,0,0,1-5.62-.86s-1.61,3-4.59,3.58-4.41-3.73-1.38-7.82c1.91-2.59,3.56-2.06,3.56-2.06S101.93,166,96.42,163.44Z" style="fill:#fff;opacity:0.6000000000000001"></path><path d="M111,164s6.07-.16,6.51.34-3.83,5.18-4.67,5.22S111,164,111,164Z" style="fill:#12ADB2"></path><path d="M111,164s6.07-.16,6.51.34-3.83,5.18-4.67,5.22S111,164,111,164Z" style="opacity:0.05"></path><path d="M105.07,173.69A9.87,9.87,0,0,0,99.78,179c-1.12,2.66,1.36,3.57,3.8,2.3s4.81-3.73,5.35-6S107.31,172.59,105.07,173.69Z" style="fill:#12ADB2;opacity:0.5"></path><path d="M101.41,172.62c1.64-.89,4.36-2.37,5.66-5a13.81,13.81,0,0,0,1.9-1.19,6.69,6.69,0,0,1-1.69,2S105.21,172.43,101.41,172.62Z" style="opacity:0.5"></path><path d="M218,140c-4.43-2.34-8.76-6.62-16.36-7.25s-14.09-.31-21.05,3.29c-13.28,7.12-27.25,29.59-30.54,36.76a43.6,43.6,0,0,1-7.44,11.4c.94-6-2.68-6.79-2.68-6.79s-2.82,5.81-18.12,15.88-20.35,2.42-20.35,2.42a4,4,0,0,1-1.4,1.49c1,11.21,3.64,20.8,7,24s11.4-2.23,11.4-2.23,9.66-8.38,17.71-12.1a55.57,55.57,0,0,1,15.49-4.53s7-5.48,9.77-7.2,11.65-1.51,28.47-12.16,41.48-37.52,41.48-37.52A126.83,126.83,0,0,1,218,140Z" style="fill:#12ADB2"></path><path d="M218,140c-4.43-2.34-8.76-6.62-16.36-7.25s-14.09-.31-21.05,3.29c-13.28,7.12-27.25,29.59-30.54,36.76a43.6,43.6,0,0,1-7.44,11.4c.94-6-2.68-6.79-2.68-6.79s-2.82,5.81-18.12,15.88-20.35,2.42-20.35,2.42a4,4,0,0,1-1.4,1.49c1,11.21,3.64,20.8,7,24s11.4-2.23,11.4-2.23,9.66-8.38,17.71-12.1a55.57,55.57,0,0,1,15.49-4.53s7-5.48,9.77-7.2,11.65-1.51,28.47-12.16,41.48-37.52,41.48-37.52A126.83,126.83,0,0,1,218,140Z" style="fill:#fff;opacity:0.2"></path><path d="M139.88,177.39s-1.26-2-9.85,1.89c0,0,6.53-2.49,8.56,0Z" style="opacity:0.1"></path><path d="M118.41,218.92c3.6-2.94,8.15-8.89,8.91-15.09,0,0,1.77,3-2,9.67Z" style="opacity:0.1"></path><path d="M142.56,184.18a23.08,23.08,0,0,1-5.15,9.9,18.61,18.61,0,0,0,7.14-12.26Z" style="opacity:0.1"></path><path d="M179.91,161.41s5.25,4.18,5.34,3.82,14.43-10.51,14.43-10.51l.38-2L186.3,162.4Z" style="opacity:0.1"></path><path d="M103.15,213.86s1.65,12.59,3.35,12.72,11.91-7.66,11.91-7.66-6.55,3.79-9.86,2.38S103.15,213.86,103.15,213.86Z" style="fill:#12ADB2"></path><path d="M103.15,213.86s1.65,12.59,3.35,12.72,11.91-7.66,11.91-7.66-6.55,3.79-9.86,2.38S103.15,213.86,103.15,213.86Z" style="opacity:0.5"></path><path d="M112.86,173.62a5.45,5.45,0,0,1,1.45-2.89c1.13-.93,1.45,0,1.45,0Z" style="fill:#12ADB2"></path><path d="M112.86,173.62a5.45,5.45,0,0,1,1.45-2.89c1.13-.93,1.45,0,1.45,0Z" style="opacity:0.2"></path><path d="M113.36,174.37a3.11,3.11,0,0,0,2.25-2.34,2.72,2.72,0,0,1-.86,1.95C113.83,174.88,113.36,174.37,113.36,174.37Z" style="fill:#12ADB2"></path><path d="M113.36,174.37a3.11,3.11,0,0,0,2.25-2.34,2.72,2.72,0,0,1-.86,1.95C113.83,174.88,113.36,174.37,113.36,174.37Z" style="opacity:0.4"></path><path d="M214.23,194.55s-11.43,5.11-15.42-5c0,0,10.88-1,14.45-5.91.76-1,2.13-3.24,2.11-4.43,0-.72-.67-.86-1.29-.55a7.94,7.94,0,0,0-1.82,1.54c-3.34,3.29-7.1,5.38-10.38,5.77a4.47,4.47,0,0,1-2.55-.29A3.83,3.83,0,0,1,198,184.4c-2.11-3.05-2.38-8.3-.7-13.79a12.57,12.57,0,0,0,8.34.36,20.5,20.5,0,0,0,9.32-6.34,4.42,4.42,0,0,0,1-1.58c.27-.86-.14-1.48-.72-1.54a4.23,4.23,0,0,0-2,.63c-4.88,2.39-16.09,7.28-14.42-2.37,1-5.62,3.27-21,7.63-22.59,6.41-2.29,11.9-1.08,17.69-1.27.05,4.64-2.52,10.23-3.75,15.39-.19.8-.32,1.73.12,2,.27.17.71,0,1.11-.27,2.66-1.81,3-6.9,3.42-9.43.37-2.29.68-4.57.89-6.8,0,0,8-1.05,10.74,4.31V181.6Z" style="fill:#12ADB2"></path><path d="M214.23,194.55s-11.43,5.11-15.42-5c0,0,10.88-1,14.45-5.91.76-1,2.13-3.24,2.11-4.43,0-.72-.67-.86-1.29-.55a7.94,7.94,0,0,0-1.82,1.54c-3.34,3.29-7.1,5.38-10.38,5.77a4.47,4.47,0,0,1-2.55-.29A3.83,3.83,0,0,1,198,184.4c-2.11-3.05-2.38-8.3-.7-13.79a12.57,12.57,0,0,0,8.34.36,20.5,20.5,0,0,0,9.32-6.34,4.42,4.42,0,0,0,1-1.58c.27-.86-.14-1.48-.72-1.54a4.23,4.23,0,0,0-2,.63c-4.88,2.39-16.09,7.28-14.42-2.37,1-5.62,3.27-21,7.63-22.59,6.41-2.29,11.9-1.08,17.69-1.27.05,4.64-2.52,10.23-3.75,15.39-.19.8-.32,1.73.12,2,.27.17.71,0,1.11-.27,2.66-1.81,3-6.9,3.42-9.43.37-2.29.68-4.57.89-6.8,0,0,8-1.05,10.74,4.31V181.6Z" style="opacity:0.1"></path><path d="M225.92,136.8c-.21,2.23-.52,4.51-.89,6.8-.41,2.53-.76,7.62-3.42,9.43-.4.27-.84.44-1.11.27-.44-.27-.31-1.2-.12-2,1.23-5.16,3.8-10.75,3.75-15.39-5.79.19-11.28-1-17.69,1.27a3.34,3.34,0,0,0-1.28.91c1.44,2.77,21.77,41.35,31.5,43.51V141.11C233.92,135.75,225.92,136.8,225.92,136.8Z" style="opacity:0.2"></path><path d="M233.16,183.61s-12-11.32-15.62-24.07c0,0,9.2,17,19.12,19.23v2.83Z" style="fill:#12ADB2"></path><path d="M233.16,183.61s-12-11.32-15.62-24.07c0,0,9.2,17,19.12,19.23v2.83Z" style="opacity:0.4"></path><path d="M236.66,116.45c0-5.93-6.74-26.7-21.19-26.62S189,106,198,111.66s20.27,8.39,27.16,12.76c5.76,3.64,9.53,6.73,11.49,14.39Z" style="fill:#12ADB2"></path><path d="M236.66,116.45c0-5.93-6.74-26.7-21.19-26.62S189,106,198,111.66s20.27,8.39,27.16,12.76c5.76,3.64,9.53,6.73,11.49,14.39Z" style="opacity:0.30000000000000004"></path><path d="M215.47,89.83a23.19,23.19,0,0,0-17.74,9.1c5-2.71,36.07,6,38.93,26.9v-9.38C236.66,110.52,229.92,89.75,215.47,89.83Z" style="opacity:0.1"></path><path d="M211.23,100.66s19.8,3.53,25.43,19.52v6.61S232.34,109,211.23,100.66Z" style="fill:#12ADB2"></path><path d="M211.23,100.66s19.8,3.53,25.43,19.52v6.61S232.34,109,211.23,100.66Z" style="opacity:0.2"></path><path d="M211.23,100.66s19.8,3.53,25.43,19.52v6.61S232.34,109,211.23,100.66Z" style="opacity:0.4"></path><path d="M78.79,221.74s3.11-8.38,3.59-23.27-5-27.59-12-25.18-7,8-7,8v10.9s3.1,3.36,6.49,10.77,3,24.46,3,24.46Z" style="fill:#12ADB2"></path><path d="M65.24,176.66a8,8,0,0,0-1.89,4.6v10.9s3.1,3.36,6.49,10.77,3,24.46,3,24.46l3.94-3.76C83.34,183.67,65.38,176.71,65.24,176.66Z" style="opacity:0.1"></path><path d="M70.29,180.56s10.2,15.11,5.19,45.21l1.67-1.37S83.78,190.51,70.29,180.56Z" style="fill:#12ADB2"></path><path d="M70.29,180.56s10.2,15.11,5.19,45.21l1.67-1.37S83.78,190.51,70.29,180.56Z" style="opacity:0.4"></path><path d="M74.81,275.05A61,61,0,0,0,86.64,256.2c5.68-14.81,1.53-34.94-2.15-38.48,0,0-12.49,6.67-21.14,23.38v40.57Z" style="fill:#12ADB2"></path><path d="M74.81,275.05A61,61,0,0,0,86.64,256.2c5.68-14.81,1.53-34.94-2.15-38.48,0,0-12.49,6.67-21.14,23.38v40.57Z" style="opacity:0.15"></path><path d="M63.35,276.57h0v5.1l11.46-6.62A61,61,0,0,0,86.64,256.2c5.68-14.81,1.53-34.94-2.15-38.48l-3.07,8.69C64.54,257.61,63.35,276.57,63.35,276.57Z" style="opacity:0.15"></path><path d="M63.35,269.65c0-.53,4.86-21.25,18.07-43.24,0,0-12.65,24.14-18.07,50.16C63.51,275.78,63.35,269.65,63.35,269.65Z" style="fill:#12ADB2"></path><path d="M63.35,269.65c0-.53,4.86-21.25,18.07-43.24,0,0-12.65,24.14-18.07,50.16C63.51,275.78,63.35,269.65,63.35,269.65Z" style="opacity:0.4"></path><path d="M176.41,99.87a13.42,13.42,0,0,1-6.07,10.52c-3.35,1.93-6.07.36-6.07-3.51a13.41,13.41,0,0,1,6.07-10.51C173.7,94.43,176.41,96,176.41,99.87Z" style="fill:#12ADB2"></path><ellipse cx="180.94" cy="106.2" rx="3.82" ry="2.21" transform="translate(-1.5 209.8) rotate(-60)" style="fill:#12ADB2"></ellipse><path d="M128.47,136.86a6,6,0,0,1-2.7,4.67c-1.49.87-2.7.17-2.7-1.56a6,6,0,0,1,2.7-4.67C127.26,134.43,128.47,135.13,128.47,136.86Z" style="fill:#12ADB2"></path><path d="M135,139.2a3,3,0,0,1-1.35,2.34c-.75.43-1.35.08-1.35-.78a3,3,0,0,1,1.35-2.34C134.36,138,135,138.34,135,139.2Z" style="fill:#12ADB2"></path></g></g></g></svg>
