<svg xmlns="http://www.w3.org/2000/svg" version="1.1" viewBox="12 12 76 76">
  <path fill="white"
    d="m16.668 13.078c-2.2773 0-4.168 1.8906-4.168 4.168v44.793c0 2.2031 1.6055 4.1172 3.7734 4.5l19.445 3.4375c0.75391 0.13281 1.418 0.57031 1.8438 1.2031l9.5508 14.246c1.3359 1.9961 4.4414 1.9961 5.7773 0l9.5469-14.246c0.42578-0.63672 1.0898-1.0703 1.8438-1.2031l19.445-3.4414c2.168-0.38281 3.7734-2.2969 3.7734-4.5v-44.789c0-2.2773-1.8906-4.168-4.168-4.168zm50.09 12.062h2.7188c2.2266 0 4.0781 1.8438 4.082 4.0742l-0.003906 11.273v11.273c0 2.2305-1.8555 4.0781-4.082 4.0781h-2.7148c-1.9102 0-3.7148-0.89844-4.8633-2.4258l-2.8203-3.75c-0.35938-0.48047-0.92578-0.76562-1.5312-0.76562h-0.6875v2.8672c0 2.2266-1.8516 4.0703-4.082 4.0703h-22.25c-2.2305 0-4.0859-1.8438-4.0859-4.0703v-22.559c0-2.2266 1.8555-4.0703 4.0859-4.0703h22.254c2.2305 0 4.082 1.8438 4.082 4.0703v2.8672h0.6875c0.60547 0 1.168-0.28516 1.5312-0.76562l2.8164-3.75c1.1484-1.5273 2.9531-2.4258 4.8633-2.4258zm-36.152 4.1602v22.379h22.082v-22.379zm36.148 0c-0.60547 0-1.168 0.28125-1.5312 0.76172l-2.8164 3.75c-1.1484 1.5273-2.9531 2.4297-4.8633 2.4297h-0.6875v8.4883h0.6875c1.9102 0 3.7148 0.90234 4.8633 2.4297l2.8203 3.75c0.35938 0.48047 0.92578 0.76172 1.5312 0.76172h2.6328v-22.371z" />
</svg>